<mxfile host="app.diagrams.net" modified="2023-10-28T19:55:24.641Z" agent="Mozilla/5.0 (Macintosh; Intel Mac OS X 10.15; rv:109.0) Gecko/20100101 Firefox/119.0" etag="a7Q5ziXccrIGW6-SLzpT" version="22.0.8" type="device">
  <diagram name="Page-1" id="P8YmLe6JjUdKFXF4svh0">
    <mxGraphModel dx="2578" dy="964" grid="1" gridSize="10" guides="1" tooltips="1" connect="1" arrows="1" fold="1" page="1" pageScale="1" pageWidth="850" pageHeight="1100" math="0" shadow="0">
      <root>
        <mxCell id="0" />
        <mxCell id="1" parent="0" />
        <mxCell id="0hyvuIL6F51PLp0bO6bf-1" value="AWS Cloud" style="points=[[0,0],[0.25,0],[0.5,0],[0.75,0],[1,0],[1,0.25],[1,0.5],[1,0.75],[1,1],[0.75,1],[0.5,1],[0.25,1],[0,1],[0,0.75],[0,0.5],[0,0.25]];outlineConnect=0;gradientColor=none;html=1;whiteSpace=wrap;fontSize=12;fontStyle=0;container=1;pointerEvents=0;collapsible=0;recursiveResize=0;shape=mxgraph.aws4.group;grIcon=mxgraph.aws4.group_aws_cloud_alt;strokeColor=#232F3E;fillColor=none;verticalAlign=top;align=left;spacingLeft=30;fontColor=#232F3E;dashed=0;" vertex="1" parent="1">
          <mxGeometry x="40" y="80" width="760" height="600" as="geometry" />
        </mxCell>
        <mxCell id="0hyvuIL6F51PLp0bO6bf-4" value="VPC - 10.0.0.0/16" style="points=[[0,0],[0.25,0],[0.5,0],[0.75,0],[1,0],[1,0.25],[1,0.5],[1,0.75],[1,1],[0.75,1],[0.5,1],[0.25,1],[0,1],[0,0.75],[0,0.5],[0,0.25]];outlineConnect=0;gradientColor=none;html=1;whiteSpace=wrap;fontSize=12;fontStyle=0;container=1;pointerEvents=0;collapsible=0;recursiveResize=0;shape=mxgraph.aws4.group;grIcon=mxgraph.aws4.group_vpc;strokeColor=#248814;fillColor=none;verticalAlign=top;align=left;spacingLeft=30;fontColor=#AAB7B8;dashed=0;" vertex="1" parent="0hyvuIL6F51PLp0bO6bf-1">
          <mxGeometry x="40" y="40" width="680" height="520" as="geometry" />
        </mxCell>
        <mxCell id="0hyvuIL6F51PLp0bO6bf-3" value="Public subnet - 10.0.1.0/24" style="points=[[0,0],[0.25,0],[0.5,0],[0.75,0],[1,0],[1,0.25],[1,0.5],[1,0.75],[1,1],[0.75,1],[0.5,1],[0.25,1],[0,1],[0,0.75],[0,0.5],[0,0.25]];outlineConnect=0;gradientColor=none;html=1;whiteSpace=wrap;fontSize=12;fontStyle=0;container=1;pointerEvents=0;collapsible=0;recursiveResize=0;shape=mxgraph.aws4.group;grIcon=mxgraph.aws4.group_security_group;grStroke=0;strokeColor=#248814;fillColor=#E9F3E6;verticalAlign=top;align=left;spacingLeft=30;fontColor=#248814;dashed=0;" vertex="1" parent="0hyvuIL6F51PLp0bO6bf-4">
          <mxGeometry x="40" y="40" width="291.32" height="450" as="geometry" />
        </mxCell>
        <mxCell id="0hyvuIL6F51PLp0bO6bf-5" value="Bastion Host" style="sketch=0;outlineConnect=0;fontColor=#232F3E;gradientColor=none;fillColor=#ED7100;strokeColor=none;dashed=0;verticalLabelPosition=bottom;verticalAlign=top;align=center;html=1;fontSize=12;fontStyle=0;aspect=fixed;pointerEvents=1;shape=mxgraph.aws4.t2_instance;" vertex="1" parent="0hyvuIL6F51PLp0bO6bf-3">
          <mxGeometry x="116" y="100" width="48" height="48" as="geometry" />
        </mxCell>
        <mxCell id="0hyvuIL6F51PLp0bO6bf-26" style="edgeStyle=orthogonalEdgeStyle;rounded=0;orthogonalLoop=1;jettySize=auto;html=1;" edge="1" parent="0hyvuIL6F51PLp0bO6bf-3" source="0hyvuIL6F51PLp0bO6bf-9" target="0hyvuIL6F51PLp0bO6bf-12">
          <mxGeometry relative="1" as="geometry" />
        </mxCell>
        <mxCell id="0hyvuIL6F51PLp0bO6bf-9" value="NAT Gateway" style="outlineConnect=0;dashed=0;verticalLabelPosition=bottom;verticalAlign=top;align=center;html=1;shape=mxgraph.aws3.vpc_nat_gateway;fillColor=#F58534;gradientColor=none;" vertex="1" parent="0hyvuIL6F51PLp0bO6bf-3">
          <mxGeometry x="180" y="280" width="38.33" height="40" as="geometry" />
        </mxCell>
        <mxCell id="0hyvuIL6F51PLp0bO6bf-12" value="Elastic IP" style="outlineConnect=0;dashed=0;verticalLabelPosition=bottom;verticalAlign=top;align=center;html=1;shape=mxgraph.aws3.elastic_ip;fillColor=#F58534;gradientColor=none;" vertex="1" parent="0hyvuIL6F51PLp0bO6bf-3">
          <mxGeometry x="50" y="289.5" width="76.5" height="21" as="geometry" />
        </mxCell>
        <mxCell id="0hyvuIL6F51PLp0bO6bf-14" value="Public route table" style="sketch=0;outlineConnect=0;fontColor=#232F3E;gradientColor=none;fillColor=#8C4FFF;strokeColor=none;dashed=0;verticalLabelPosition=bottom;verticalAlign=top;align=center;html=1;fontSize=12;fontStyle=0;aspect=fixed;pointerEvents=1;shape=mxgraph.aws4.route_table;" vertex="1" parent="0hyvuIL6F51PLp0bO6bf-3">
          <mxGeometry x="250" y="400" width="51.32" height="50" as="geometry" />
        </mxCell>
        <mxCell id="0hyvuIL6F51PLp0bO6bf-30" value="Security group" style="fillColor=none;strokeColor=#DD3522;verticalAlign=top;fontStyle=0;fontColor=#DD3522;whiteSpace=wrap;html=1;" vertex="1" parent="0hyvuIL6F51PLp0bO6bf-3">
          <mxGeometry x="75" y="59" width="130" height="130" as="geometry" />
        </mxCell>
        <mxCell id="0hyvuIL6F51PLp0bO6bf-2" value="Private subnet - 10.0.10.0/24" style="points=[[0,0],[0.25,0],[0.5,0],[0.75,0],[1,0],[1,0.25],[1,0.5],[1,0.75],[1,1],[0.75,1],[0.5,1],[0.25,1],[0,1],[0,0.75],[0,0.5],[0,0.25]];outlineConnect=0;gradientColor=none;html=1;whiteSpace=wrap;fontSize=12;fontStyle=0;container=1;pointerEvents=0;collapsible=0;recursiveResize=0;shape=mxgraph.aws4.group;grIcon=mxgraph.aws4.group_security_group;grStroke=0;strokeColor=#147EBA;fillColor=#E6F2F8;verticalAlign=top;align=left;spacingLeft=30;fontColor=#147EBA;dashed=0;" vertex="1" parent="0hyvuIL6F51PLp0bO6bf-4">
          <mxGeometry x="360" y="40" width="280" height="450" as="geometry" />
        </mxCell>
        <mxCell id="0hyvuIL6F51PLp0bO6bf-7" value="k8s - Control Plane" style="sketch=0;outlineConnect=0;fontColor=#232F3E;gradientColor=none;fillColor=#ED7100;strokeColor=none;dashed=0;verticalLabelPosition=bottom;verticalAlign=top;align=center;html=1;fontSize=12;fontStyle=0;aspect=fixed;pointerEvents=1;shape=mxgraph.aws4.t3a_instance;" vertex="1" parent="0hyvuIL6F51PLp0bO6bf-2">
          <mxGeometry x="116" y="100" width="48" height="48" as="geometry" />
        </mxCell>
        <mxCell id="0hyvuIL6F51PLp0bO6bf-6" value="k8s - Worker" style="sketch=0;outlineConnect=0;fontColor=#232F3E;gradientColor=none;fillColor=#ED7100;strokeColor=none;dashed=0;verticalLabelPosition=bottom;verticalAlign=top;align=center;html=1;fontSize=12;fontStyle=0;aspect=fixed;pointerEvents=1;shape=mxgraph.aws4.t3a_instance;" vertex="1" parent="0hyvuIL6F51PLp0bO6bf-2">
          <mxGeometry x="116" y="280" width="48" height="48" as="geometry" />
        </mxCell>
        <mxCell id="0hyvuIL6F51PLp0bO6bf-15" value="Private route table" style="sketch=0;outlineConnect=0;fontColor=#232F3E;gradientColor=none;fillColor=#8C4FFF;strokeColor=none;dashed=0;verticalLabelPosition=bottom;verticalAlign=top;align=center;html=1;fontSize=12;fontStyle=0;aspect=fixed;pointerEvents=1;shape=mxgraph.aws4.route_table;" vertex="1" parent="0hyvuIL6F51PLp0bO6bf-2">
          <mxGeometry x="240" y="400" width="51.32" height="50" as="geometry" />
        </mxCell>
        <mxCell id="0hyvuIL6F51PLp0bO6bf-24" value="" style="sketch=0;html=1;dashed=0;whitespace=wrap;fillColor=#2875E2;strokeColor=#ffffff;points=[[0.005,0.63,0],[0.1,0.2,0],[0.9,0.2,0],[0.5,0,0],[0.995,0.63,0],[0.72,0.99,0],[0.5,1,0],[0.28,0.99,0]];verticalLabelPosition=bottom;align=center;verticalAlign=top;shape=mxgraph.kubernetes.icon;prIcon=master" vertex="1" parent="0hyvuIL6F51PLp0bO6bf-2">
          <mxGeometry x="160" y="120" width="40" height="28" as="geometry" />
        </mxCell>
        <mxCell id="0hyvuIL6F51PLp0bO6bf-25" value="" style="sketch=0;html=1;dashed=0;whitespace=wrap;fillColor=#2875E2;strokeColor=#ffffff;points=[[0.005,0.63,0],[0.1,0.2,0],[0.9,0.2,0],[0.5,0,0],[0.995,0.63,0],[0.72,0.99,0],[0.5,1,0],[0.28,0.99,0]];verticalLabelPosition=bottom;align=center;verticalAlign=top;shape=mxgraph.kubernetes.icon;prIcon=node" vertex="1" parent="0hyvuIL6F51PLp0bO6bf-2">
          <mxGeometry x="165.42000000000002" y="300" width="29.17" height="28" as="geometry" />
        </mxCell>
        <mxCell id="0hyvuIL6F51PLp0bO6bf-31" value="Security group" style="fillColor=none;strokeColor=#DD3522;verticalAlign=top;fontStyle=0;fontColor=#DD3522;whiteSpace=wrap;html=1;" vertex="1" parent="0hyvuIL6F51PLp0bO6bf-2">
          <mxGeometry x="75" y="59" width="130" height="130" as="geometry" />
        </mxCell>
        <mxCell id="0hyvuIL6F51PLp0bO6bf-32" value="Security group" style="fillColor=none;strokeColor=#DD3522;verticalAlign=top;fontStyle=0;fontColor=#DD3522;whiteSpace=wrap;html=1;" vertex="1" parent="0hyvuIL6F51PLp0bO6bf-2">
          <mxGeometry x="75" y="239" width="130" height="130" as="geometry" />
        </mxCell>
        <mxCell id="0hyvuIL6F51PLp0bO6bf-19" style="edgeStyle=orthogonalEdgeStyle;rounded=0;orthogonalLoop=1;jettySize=auto;html=1;" edge="1" parent="0hyvuIL6F51PLp0bO6bf-4" source="0hyvuIL6F51PLp0bO6bf-5" target="0hyvuIL6F51PLp0bO6bf-7">
          <mxGeometry relative="1" as="geometry" />
        </mxCell>
        <mxCell id="0hyvuIL6F51PLp0bO6bf-20" style="edgeStyle=orthogonalEdgeStyle;rounded=0;orthogonalLoop=1;jettySize=auto;html=1;" edge="1" parent="0hyvuIL6F51PLp0bO6bf-4" source="0hyvuIL6F51PLp0bO6bf-5" target="0hyvuIL6F51PLp0bO6bf-6">
          <mxGeometry relative="1" as="geometry">
            <Array as="points">
              <mxPoint x="390" y="164" />
              <mxPoint x="390" y="344" />
            </Array>
          </mxGeometry>
        </mxCell>
        <mxCell id="0hyvuIL6F51PLp0bO6bf-21" value="SSH" style="edgeLabel;html=1;align=center;verticalAlign=middle;resizable=0;points=[];labelBackgroundColor=none;" vertex="1" connectable="0" parent="0hyvuIL6F51PLp0bO6bf-20">
          <mxGeometry x="-0.7699" y="4" relative="1" as="geometry">
            <mxPoint x="44" y="20" as="offset" />
          </mxGeometry>
        </mxCell>
        <mxCell id="0hyvuIL6F51PLp0bO6bf-22" style="edgeStyle=orthogonalEdgeStyle;rounded=0;orthogonalLoop=1;jettySize=auto;html=1;" edge="1" parent="0hyvuIL6F51PLp0bO6bf-4" source="0hyvuIL6F51PLp0bO6bf-5" target="0hyvuIL6F51PLp0bO6bf-7">
          <mxGeometry relative="1" as="geometry">
            <Array as="points">
              <mxPoint x="340" y="150" />
              <mxPoint x="340" y="150" />
            </Array>
          </mxGeometry>
        </mxCell>
        <mxCell id="0hyvuIL6F51PLp0bO6bf-23" value="kube-api" style="edgeLabel;html=1;align=center;verticalAlign=middle;resizable=0;points=[];labelBackgroundColor=none;" vertex="1" connectable="0" parent="0hyvuIL6F51PLp0bO6bf-22">
          <mxGeometry x="0.36" y="1" relative="1" as="geometry">
            <mxPoint x="-89" y="-9" as="offset" />
          </mxGeometry>
        </mxCell>
        <mxCell id="0hyvuIL6F51PLp0bO6bf-11" value="Internet Gateway" style="outlineConnect=0;dashed=0;verticalLabelPosition=bottom;verticalAlign=top;align=center;html=1;shape=mxgraph.aws3.internet_gateway;fillColor=#F58536;gradientColor=none;" vertex="1" parent="0hyvuIL6F51PLp0bO6bf-1">
          <mxGeometry x="20" y="360" width="38.33" height="40" as="geometry" />
        </mxCell>
        <mxCell id="0hyvuIL6F51PLp0bO6bf-27" style="edgeStyle=orthogonalEdgeStyle;rounded=0;orthogonalLoop=1;jettySize=auto;html=1;" edge="1" parent="0hyvuIL6F51PLp0bO6bf-1" source="0hyvuIL6F51PLp0bO6bf-12" target="0hyvuIL6F51PLp0bO6bf-11">
          <mxGeometry relative="1" as="geometry" />
        </mxCell>
        <mxCell id="0hyvuIL6F51PLp0bO6bf-17" style="edgeStyle=orthogonalEdgeStyle;rounded=0;orthogonalLoop=1;jettySize=auto;html=1;" edge="1" parent="1" source="0hyvuIL6F51PLp0bO6bf-16" target="0hyvuIL6F51PLp0bO6bf-5">
          <mxGeometry relative="1" as="geometry" />
        </mxCell>
        <mxCell id="0hyvuIL6F51PLp0bO6bf-18" value="SSH" style="edgeLabel;html=1;align=center;verticalAlign=middle;resizable=0;points=[];labelBackgroundColor=none;" vertex="1" connectable="0" parent="0hyvuIL6F51PLp0bO6bf-17">
          <mxGeometry x="0.0362" y="-4" relative="1" as="geometry">
            <mxPoint x="47" y="12" as="offset" />
          </mxGeometry>
        </mxCell>
        <mxCell id="0hyvuIL6F51PLp0bO6bf-16" value="Ansible host" style="sketch=0;pointerEvents=1;shadow=0;dashed=0;html=1;strokeColor=none;labelPosition=center;verticalLabelPosition=bottom;verticalAlign=top;align=center;fillColor=#515151;shape=mxgraph.mscae.system_center.admin_console" vertex="1" parent="1">
          <mxGeometry x="-120" y="255.2" width="80" height="57.6" as="geometry" />
        </mxCell>
        <mxCell id="0hyvuIL6F51PLp0bO6bf-28" value="www" style="outlineConnect=0;dashed=0;verticalLabelPosition=bottom;verticalAlign=top;align=center;html=1;shape=mxgraph.aws3.internet;fillColor=#D2D3D3;gradientColor=none;" vertex="1" parent="1">
          <mxGeometry x="-120" y="420.25" width="79.5" height="79.5" as="geometry" />
        </mxCell>
        <mxCell id="0hyvuIL6F51PLp0bO6bf-29" style="edgeStyle=orthogonalEdgeStyle;rounded=0;orthogonalLoop=1;jettySize=auto;html=1;" edge="1" parent="1" source="0hyvuIL6F51PLp0bO6bf-11" target="0hyvuIL6F51PLp0bO6bf-28">
          <mxGeometry relative="1" as="geometry" />
        </mxCell>
      </root>
    </mxGraphModel>
  </diagram>
</mxfile>
